<?xml version="1.0" standalone="no"?>
<!DOCTYPE svg PUBLIC "-//W3C//DTD SVG 20010904//EN"
 "http://www.w3.org/TR/2001/REC-SVG-20010904/DTD/svg10.dtd">
<svg version="1.0" xmlns="http://www.w3.org/2000/svg"
 width="500.000000pt" height="500.000000pt" viewBox="0 0 500.000000 500.000000"
 preserveAspectRatio="xMidYMid meet">

<g transform="translate(0.000000,500.000000) scale(0.100000,-0.100000)"
fill="#000000" stroke="none">
<path d="M2358 4250 c-38 -30 -68 -82 -68 -120 0 -20 -8 -39 -19 -49 -23 -20
-32 -138 -19 -250 9 -74 27 -129 28 -86 0 13 8 4 23 -25 12 -25 32 -58 45 -74
17 -23 22 -41 22 -92 l0 -64 40 -20 c66 -33 74 -29 66 35 -3 31 -7 61 -9 67
-1 6 8 16 19 23 32 16 54 36 54 48 0 5 -8 3 -17 -5 -28 -24 -51 -28 -78 -16
-34 15 -31 33 8 46 25 8 27 10 10 11 -12 1 -26 7 -30 15 -4 7 -15 16 -23 19
-8 3 17 7 55 8 59 2 62 3 20 6 -117 7 -133 12 -156 49 -17 28 -24 32 -35 23
-11 -9 -14 -8 -14 2 1 36 32 55 58 36 8 -7 17 -6 24 1 16 16 55 15 61 0 3 -7
6 -1 6 14 1 15 6 30 11 33 17 10 -37 55 -66 55 -24 0 -24 1 -10 29 20 38 72
81 99 81 27 0 157 -134 157 -162 0 -17 2 -18 15 -8 33 28 11 220 -25 220 -6 0
-10 7 -10 15 0 8 -4 15 -10 15 -5 0 -10 8 -10 18 0 24 -35 78 -62 96 -13 8
-48 18 -78 21 -46 5 -59 2 -82 -15z m-37 -292 c-29 -73 -40 -93 -41 -71 0 12
9 38 21 57 24 41 33 47 20 14z"/>
<path d="M2493 3932 c-8 -5 -10 -21 -6 -45 5 -30 10 -37 29 -37 12 0 26 5 30
11 4 6 9 7 13 2 3 -5 17 -4 31 4 21 12 22 14 5 12 -11 -1 -29 1 -40 5 -11 5
-26 10 -33 12 -23 7 -2 24 29 24 18 0 28 4 24 10 -7 12 -65 13 -82 2z"/>
<path d="M2414 3762 c12 -12 21 -13 48 -5 30 10 31 11 8 13 -14 2 -35 4 -48 5
-21 2 -22 1 -8 -13z"/>
<path d="M2573 3633 c-23 -4 -30 -17 -15 -27 5 -3 27 1 51 7 62 19 35 34 -36
20z"/>
<path d="M2206 3513 c-10 -24 19 -49 82 -71 103 -37 104 -37 96 -6 -5 19 -4
25 5 20 6 -4 11 -18 11 -31 0 -20 6 -25 38 -30 20 -4 45 -9 55 -12 9 -2 17 0
17 5 0 6 8 8 18 6 9 -2 28 5 41 16 18 16 22 27 17 50 -5 29 7 42 17 18 3 -8 6
-7 6 4 2 30 -19 30 -36 1 -9 -15 -28 -38 -43 -50 l-27 -22 -59 28 c-70 34
-140 61 -173 67 -13 3 -32 9 -42 14 -12 7 -19 5 -23 -7z"/>
<path d="M2634 3476 c-16 -14 -24 -25 -19 -25 15 -1 61 37 54 44 -4 3 -20 -5
-35 -19z"/>
<path d="M2122 3365 c4 -5 3 -14 -4 -22 -14 -18 -26 -214 -14 -249 6 -20 2
-37 -18 -74 -14 -26 -26 -50 -26 -53 0 -14 53 -16 80 -2 36 19 70 19 70 1 0
-21 36 -8 47 17 8 19 11 13 17 -35 10 -78 -2 -162 -26 -194 -11 -14 -18 -27
-15 -30 6 -7 69 71 98 121 19 34 22 55 23 142 1 81 -2 106 -15 118 -14 15 -15
7 -11 -87 3 -77 0 -112 -11 -138 l-15 -34 -6 69 c-6 62 -30 202 -42 247 -3 10
-11 15 -20 11 -8 -3 -14 -2 -13 3 5 22 -15 90 -30 102 -9 7 -14 14 -12 15 11
6 -13 47 -37 63 -15 9 -24 13 -20 9z"/>
<path d="M2398 3133 c7 -3 16 -2 19 1 4 3 -2 6 -13 5 -11 0 -14 -3 -6 -6z"/>
<path d="M2776 3051 c-7 -55 -3 -87 21 -142 14 -34 17 -36 46 -29 82 20 90 31
35 44 -26 6 -68 41 -68 57 0 4 9 9 21 12 l20 5 -20 39 c-11 22 -26 45 -34 51
-12 10 -15 4 -21 -37z"/>
<path d="M2115 2918 c-27 -5 -57 -16 -66 -24 -8 -8 -19 -11 -22 -7 -4 3 -7 -7
-7 -24 0 -16 8 -37 18 -46 20 -19 67 -23 77 -7 3 6 -2 10 -13 10 -18 0 -62 38
-62 54 0 5 20 5 45 2 36 -6 45 -4 45 8 0 8 10 16 22 18 12 2 23 9 26 16 4 13
6 13 -63 0z"/>
<path d="M2241 2912 c-6 -12 -11 -27 -11 -34 1 -7 8 0 16 15 9 16 13 31 11 34
-3 2 -10 -4 -16 -15z"/>
<path d="M2210 2849 c0 -5 5 -7 10 -4 6 3 10 8 10 11 0 2 -4 4 -10 4 -5 0 -10
-5 -10 -11z"/>
<path d="M2844 2829 c12 -8 25 -8 40 -1 18 9 16 11 -19 11 -33 0 -37 -1 -21
-10z"/>
<path d="M2650 2785 c0 -5 5 -17 10 -25 5 -8 10 -10 10 -5 0 6 -5 17 -10 25
-5 8 -10 11 -10 5z"/>
<path d="M2827 2771 c-9 -36 3 -61 29 -61 32 0 32 29 0 59 -23 22 -23 22 -29
2z"/>
<path d="M2137 2753 c-4 -3 -7 -11 -7 -17 0 -6 5 -5 12 2 6 6 9 14 7 17 -3 3
-9 2 -12 -2z"/>
<path d="M2300 2739 c-16 -30 -8 -31 13 -3 10 13 13 24 8 24 -6 0 -15 -9 -21
-21z"/>
<path d="M2293 2679 c-18 -5 -37 -18 -43 -28 -10 -19 -71 -56 -67 -41 3 10
-12 12 -36 4 -24 -8 -16 -28 12 -32 12 -2 25 -10 28 -18 7 -19 -24 -54 -48
-54 -10 0 -22 -7 -27 -15 -7 -14 -14 -14 -64 -1 -31 8 -66 12 -78 9 -21 -6
-21 -6 5 -33 19 -20 36 -27 67 -28 23 -1 44 -4 46 -7 3 -3 11 0 18 6 11 9 12
2 8 -38 -4 -28 3 -111 16 -198 20 -142 95 -536 125 -655 7 -30 19 -91 25 -135
6 -44 18 -106 26 -138 8 -32 25 -126 38 -209 18 -113 28 -153 41 -160 9 -6 20
-19 25 -31 6 -16 9 -17 9 -6 1 10 13 19 30 22 15 3 42 18 60 32 l31 27 0 226
c-1 125 -5 247 -10 272 -5 25 -16 111 -25 191 -14 121 -15 177 -6 325 12 219
21 253 50 182 35 -90 170 -500 180 -548 7 -30 15 -134 20 -230 7 -172 8 -178
61 -359 52 -178 55 -185 89 -205 33 -19 70 -22 114 -10 34 10 37 37 20 155
-12 84 -16 182 -15 369 1 227 -2 279 -28 480 -16 124 -32 250 -36 280 -3 30
-8 58 -10 61 -2 4 2 9 9 12 8 3 11 19 9 46 -2 22 -7 39 -11 36 -4 -2 -6 -19
-4 -37 l4 -33 -15 25 c-8 14 -16 43 -16 65 0 27 -15 69 -45 129 -25 49 -45 94
-45 99 0 20 43 -29 60 -69 21 -48 48 -73 36 -33 -21 67 -21 66 36 85 l53 17
-50 14 c-59 16 -154 12 -309 -13 -97 -16 -124 -16 -245 -5 -108 9 -139 15
-152 30 -15 16 -16 22 -5 36 11 15 23 16 107 9 129 -11 224 -7 289 10 52 15
52 15 10 9 -111 -17 -348 1 -342 25 1 7 -6 12 -16 12 -10 0 -22 3 -25 7 -13
12 15 33 44 33 32 0 48 18 28 31 -16 10 -14 10 -56 -2z"/>
<path d="M2827 2645 c4 -38 14 -58 39 -84 18 -19 37 -32 41 -28 7 8 -29 80
-57 112 -10 11 -20 27 -23 35 -4 8 -4 -7 0 -35z"/>
<path d="M2870 2671 c0 -5 5 -13 10 -16 6 -3 10 -2 10 4 0 5 -4 13 -10 16 -5
3 -10 2 -10 -4z"/>
<path d="M1990 2380 c8 -5 20 -10 25 -10 6 0 3 5 -5 10 -8 5 -19 10 -25 10 -5
0 -3 -5 5 -10z"/>
<path d="M1991 2220 c0 -27 4 -60 9 -72 7 -20 9 -17 9 19 1 44 17 65 32 42 16
-26 9 3 -8 32 -26 43 -40 36 -42 -21z"/>
<path d="M2051 2180 c0 -14 28 -72 29 -59 0 4 -7 22 -15 40 -8 19 -14 27 -14
19z"/>
<path d="M2010 2100 c0 -9 12 -29 28 -46 15 -17 22 -23 16 -15 -6 9 -19 30
-27 46 -9 17 -16 23 -17 15z"/>
<path d="M2077 2049 c7 -7 15 -10 18 -7 3 3 -2 9 -12 12 -14 6 -15 5 -6 -5z"/>
<path d="M2930 713 c0 -17 8 -37 17 -44 15 -13 16 -11 9 21 -9 47 -26 63 -26
23z"/>
</g>
</svg>
